<?xml version="1.0" encoding="UTF-8"?>
<svg width="588" height="167" version="1.1" viewBox="0 0 588 167" xmlns="http://www.w3.org/2000/svg" xmlns:cc="http://creativecommons.org/ns#" xmlns:dc="http://purl.org/dc/elements/1.1/" xmlns:rdf="http://www.w3.org/1999/02/22-rdf-syntax-ns#">
 <metadata>
  <rdf:RDF>
   <cc:Work rdf:about="">
    <dc:format>image/svg+xml</dc:format>
    <dc:type rdf:resource="http://purl.org/dc/dcmitype/StillImage"/>
    <dc:title>Hololive Production logo</dc:title>
   </cc:Work>
  </rdf:RDF>
 </metadata>
 <title>Hololive Production logo</title>
 <g transform="translate(-13 .74)">
  <g transform="translate(0 -574)">
   <g transform="matrix(.31 0 0 .31 1799 678)">
    <path d="m-5725 105c-16-5.5-28-18-31-33-0.55-2.8-0.97-16-0.95-28l0.033-23 1.8 5.3c4.2 12 15 23 27 27 7.2 2.7 19 3.6 25 2 4.2-1 324-151 348-164 13-6.5 20-15 24-25 1.5-4.2 1.6-3.2 1.3 22-0.23 25-0.36 27-2.5 31-3.5 7.6-8.8 14-15 18-5.7 3.9-343 164-354 167-6.7 2.4-19 2.4-26 0.072z" style="fill:#f9f9f9"/>
    <g transform="translate(-1440,-281)">
     <path d="m-4276 482c-16-3.2-30-15-35-31-1.9-5.9-2-9.3-1.9-57l0.036-51 2 5.3c7.6 21 32 35 52 29 3.3-0.89 314-147 342-161 14-6.7 22-15 26-27 1.1-3 1.3 4.3 1.4 47 0.067 48-0.038 51-1.9 57-2.3 7.4-7.7 15-14 20-4.4 3.3-338 161-350 166-6 2.3-15 3-21 1.8zm-5.7-146c-14-4.7-25-15-29-28-2-6.3-2-9-2-165 0-103 0.36-160 1-164 2.4-13 11-24 23-29 5.5-2.6 8.3-3.2 15-3.6 4.8-0.21 10 0.15 12 0.83 3.7 1.1 340 153 352 159 15 7.7 24 26 19 42-4.5 16-11 21-38 35-88 42-327 154-330 155-6.6 1.8-16 1.3-24-1.3z" style="fill:#75e5ee;stroke-width:.99"/>
     <path d="m-3646 477c0-0.79 1.2-7.7 2.6-15 4-21 12-69 12-70 0-0.54 3.1-0.98 7-0.98 5.6 0 7 0.31 7 1.5 0 1.8-0.35 1.8 5.4-0.11 3.2-1.1 7-1.5 12-1.2 9.3 0.53 15 4.2 19 12 2.7 5.1 2.9 6 2.4 14-0.76 12-3.6 19-11 27-4.4 4.4-7.7 6.7-12 8.2-6.9 2.6-16 2.8-21 0.65-2-0.83-3.9-1.3-4.2-0.97-0.39 0.39-4.9 24-5.1 27-0.012 0.14-3.2 0.25-7 0.25-5.4 0-7-0.33-7-1.4zm44-39c5.2-3.2 8.4-8.3 9.6-15 1.3-7.7 0.56-11-3.2-15-2.4-2.4-3.7-2.9-8.2-2.9-11 0.01-19 9.3-19 23-0.032 4.4 2.4 8.8 5.7 11 3.9 2.1 11 1.9 15-0.35zm64 15c0-1.4 10-58 11-60 0.43-1.4 1.7-1.8 7.4-1.8s6.8 0.26 6.3 1.5c-0.32 0.83-0.36 1.5-0.094 1.5 0.26 0 2.4-0.67 4.7-1.5 2.3-0.82 7.1-1.5 11-1.5 7.2 0 7.2-0.034 5.3 9l-1.1 5h-5.7c-7 0-12 2.3-15 7.6-2.3 3.3-3.2 6.9-5.9 23l-3.2 19h-6.8c-3.7 0-6.8-0.44-6.8-0.97zm93-1.7c-10-5.4-14-16-11-31 2.3-12 9.3-21 19-26 6.6-3.4 18-4.2 24-1.9 8.3 3.2 15 13 15 22 0 12-4.8 24-12 31-7 6.3-13 8.8-22 9.3-6.9 0.38-8.1 0.15-13-2.5zm25-15c4.4-3.3 7.2-9.1 8.1-17 1.1-9.3-3.4-15-12-15-5.3 0-8.9 1.6-13 5.7-4 4.4-5 6.9-5.6 15l-0.56 7.4 3.7 3.7c3.5 3.5 3.9 3.6 9.5 3.2 4.5-0.33 6.8-1.1 9.6-3.3zm72 15c-10-5.2-14-16-11-30 2.3-12 9.3-21 19-26 6.6-3.4 18-4.3 24-1.9 2.1 0.88 4.2 1.4 4.6 1.1 0.41-0.26 1-2.5 1.4-5 0.34-2.5 1.4-8.6 2.3-14l1.6-9h7c6.7 0 7 0.082 6.5 2.2-0.28 1.2-3.8 21-7.8 44l-7.3 42h-6.8c-5.4 0-6.8-0.31-6.8-1.5 0-0.82-0.11-1.5-0.25-1.5-0.14 0.01-2.5 0.68-5.2 1.5-7.9 2.4-15 2-22-1.3zm25-15c4.4-3.3 7.2-9.1 8.1-17 1.1-9.3-3.4-15-12-15-5.3 0-8.9 1.6-13 5.7-3.8 4.1-4.7 6.3-5.4 14-0.73 7.1 0.68 11 4.8 14 3.6 2.6 13 1.6 17-2zm80 15c-3.9-2-6.2-4.1-8.3-7.6-4.3-6.9-4.4-13-0.67-34 1.7-9.6 3.1-18 3.1-18 0-0.39 3.2-0.71 7.1-0.71h7.1l-0.55 2.8c-3.3 17-5.9 35-5.3 38 0.4 1.6 2.2 4.2 3.9 5.9 2.9 2.7 3.7 2.9 8.8 2.5 6.5-0.47 12-3.8 15-9.1 0.92-1.8 3.1-11 4.9-21s3.4-18 3.7-18c0.29-0.29 3.4-0.39 7-0.23l6.4 0.3-11 62h-6.8c-5.4 0-6.8-0.31-6.8-1.5 0-0.82-0.11-1.5-0.25-1.5-0.14 0.01-2.5 0.68-5.2 1.5-7.9 2.4-15 2-22-1.3zm104 1.5c-5.8-1.9-12-8.4-14-15-1.5-5.1-1.5-6.9-0.54-14 2.9-19 15-32 32-33 11-0.72 20 3.5 24 12l1.9 3.8-13 6.1-3.7-3.9c-3.3-3.5-4.3-3.9-8.4-3.9-5.8 0-12 2.9-15 7.1-1.2 1.7-2.8 6.1-3.6 9.7-1.7 7.9-0.68 12 3.8 16 5.4 4.6 16 2.7 21-3.7 1.6-2 1.6-2 6.7 0.57 2.8 1.4 5.4 3 5.7 3.6 1 1.7-8.3 10-14 13-6.5 3-17 3.9-23 2zm99-0.61c-8.4-5.2-9.3-9.2-6-28 1.4-8.2 2.9-16 3.2-17 0.52-2.2 0.3-2.2-6.7-2.2h-7.2l0.64-5.4c1-8.5 0.94-8.5 9-8.8l7.1-0.29 2.2-12c1.2-6.6 2.2-12 2.3-12 0.026-0.14 3.1-0.25 6.9-0.25h6.9l-1.9 10c-2.8 16-3.1 15 5 15h6.9l-0.86 4.8c-1.8 9.9-1.1 9.2-8.8 9.2-5.7 0-7 0.3-7.4 1.8-1.4 4.9-4.8 27-4.5 30 0.33 2.9 0.48 2.9 6.7 3.2 6 0.28 6.3 0.43 5.8 2.5-0.29 1.2-0.83 4.3-1.2 6.9l-0.69 4.8h-7.1c-5.2 0-8-0.51-10-1.9zm68 1.3c0-0.76 8.9-51 10-57l1-5.2h6.9c6.7 0 6.9 0.084 6.4 2.2-0.68 3-11 59-11 60 0 0.36-3.2 0.66-7 0.66s-7-0.23-7-0.51zm77-1.1c-8-2.9-14-13-14-22 0-5.8 3.5-19 6.3-23 8.9-14 27-20 41-13 10 5.1 14 14 11 28-2.2 14-9.1 23-20 29-6.7 3.3-17 4-24 1.6zm19-14c3.3-1.7 7.7-6 9.4-9.2 0.82-1.6 1.7-6.2 2.1-10l0.56-7.3-3.5-3.5c-3.2-3.2-4.1-3.5-9-3.5-9.9 0-17 7.2-18 20-0.81 6.2 1.3 12 5.4 14 3.2 1.7 10 1.9 13 0.38zm62 15c0-0.76 8.9-51 10-57l1-5.2h7c5.8 0 6.9 0.25 6.5 1.5-0.71 1.8-0.19 1.8 4.9 0.029 5.7-2.1 16-1.9 21 0.36 5.9 2.7 11 9.2 13 16 1.1 4.9 0.88 7.3-2.2 25l-3.4 20-6.7 0.3c-5.8 0.25-6.7 0.055-6.7-1.4 0-0.93 1.4-9.6 3.1-19 3.1-17 3.1-18 1.4-21-3.3-6.9-12-8.8-20-4.2-6.3 3.7-8 7.9-11 28-1.7 9.6-3.1 18-3.1 18 0 0.39-3.2 0.71-7 0.71s-7-0.23-7-0.51zm-145-76c0.3-1.2 0.85-4.4 1.2-7l0.69-4.8h6.9c7.7 0 7.5-0.35 5.7 8.3l-1.1 5.7h-7c-6.7 0-7-0.081-6.4-2.2z" style="fill:#808080"/>
     <path d="m-4282 334c-12-2.9-25-13-30-25l-3.8-7.6-0.27-141c-0.18-92 0.081-143 0.74-147 3.2-17 17-30 34-33 4.6-0.73 8.3-0.72 12 0.039 4.2 0.77 54 23 176 79 94 43 173 79 177 81 6.8 3.2 16 11 16 14 0 0.88-2.6 4.1-5.8 7.2-6.9 6.7 13-3-192 95-88 42-162 77-165 78-5.5 1.5-14 1.6-20 0.25z" style="fill:#5edcee"/>
     <path d="m-3824 193v-153h60l0.067 60c0.047 42 0.36 59 1.1 57 4-9.8 5.6-13 9.2-16 8.1-7.6 7.6-7.5 37-7.5 26 0 26 0.12 33 2.3 22 7.6 37 27 40 51 0.5 3.9 0.93 42 0.94 84l0.03 77h-60l-0.57-160-3.2-6.7c-5.4-11-16-18-27-18s-22 6.6-27 18l-3.2 6.7-0.57 160h-60zm271 152c-11-2.9-18-7.2-26-16-9.1-9.4-14-17-16-28-2.2-9.2-2.2-112 0-121 2.6-11 7.7-20 17-29 8.6-8.6 16-13 26-16 8.6-2.3 82-2.3 91 0.042 17 4.4 33 19 40 35 4.5 11 4.9 16 4.9 71 0 57-0.3 61-6.7 74-6.9 14-23 27-38 31-8.4 2.2-83 2.2-91 0zm60-32c5.9-3.1 12-9.2 15-16 2.1-4.5 2.1-5.6 2.1-58v-54l-2.7-5.7c-3-6.2-8.1-12-15-15-6.1-3.3-19-3.3-26 0.073-5.9 3-12 8.9-15 15l-2.3 4.7-0.29 52c-0.22 37 0.028 54 0.82 56 2.6 9.3 9.8 17 20 21 5.8 2.3 18 1.4 24-1.8zm122-120v-153h60v307h-60zm149 152c-20-5.8-35-22-41-43-1.7-5.5-1.8-10-1.8-62s0.15-57 1.8-62c5.1-17 17-31 31-38 13-6.1 15-6.3 61-6 39 0.34 41 0.41 47 2.6 17 6.3 31 21 36 38l2.3 6.7v119l-2.3 6.7c-5.8 17-20 32-36 38-6 2.3-7 2.3-49 2.5-38 0.21-43 0.051-49-1.5zm58-30c7.3-2.8 15-10 17-17 2-5.4 2.1-7.3 2.1-58 0-50-0.075-52-2.1-57-5.5-15-24-23-38-18-9.8 3.9-17 11-20 22-1.3 5-1.5 14-1.2 56 0.34 55 0.27 55 7.2 63 8.6 10 22 14 34 9.1zm125-121v-153h60v307h-60zm105 46v-107h60v214h-60zm105 0.053v-107h60v184l20-0.33c18-0.31 20-0.51 24-2.6 6-3 11-8.1 15-14l2.6-5.2 0.54-162h60v59c0 47-0.28 61-1.5 67-7 41-36 74-77 85-7.3 2.1-9.8 2.2-55 2.5l-47 0.34zm263 105c-21-5.7-37-23-43-44-1.3-5.3-1.5-14-1.3-64l0.28-58 2.7-7c6.7-17 20-30 36-37 6-2.2 7.2-2.3 47-2.6 46-0.39 48-0.16 61 6 15 7 26 21 31 38 1.5 4.8 1.8 10 2.2 42l0.38 36h-121v18c0 22 1.2 27 8.8 34 7.9 8.1 12 9 36 9 24 0 27-0.92 35-7.5 4.9-4.3 9.8-14 9.8-20v-3.8h30l-0.66 5.8c-2.9 26-21 47-44 54-8.5 2.3-83 2.2-91-0.023zm77-137c0.38-22-2.1-31-11-39-16-13-40-6.7-47 12-1.8 4.8-2.1 7.8-2.1 24v18l61-0.53zm-444-123v-15h60v30h-60z" style="fill:#34c9fe;stroke-width:.99"/>
     <path d="m-4281 476c-16-5.5-28-18-31-33-0.56-3-0.95-26-0.91-55 0.057-43 0.25-49 1.4-45 4.7 15 20 28 37 30 14 2.1 4.4 6.1 186-80 91-43 171-81 175-84 11-5.7 14-13 22-23l3.6-6.3 0.96 52c0.96 52-0.32 53-2.5 57-3.5 7.6-8.7 14-15 18-5.6 3.9-341 164-351 167-6.6 2.4-19 2.4-26 0.072z" style="fill:#26c5fd"/>
     <path d="m-4280 480c-15-5.5-27-18-30-33-0.66-3.1-1.1-15-1.1-28 0.06-20 0.2-22 1.4-18 4 13 17 25 30 29 6.3 1.8 18 2.1 24 0.48 5-1.4 343-163 350-167 8.1-5.1 15-14 18-23 0.44-1.4 0.7 9 0.58 23-0.2 24-0.34 26-2.5 31-3.8 9.5-12 17-25 24-5.9 3-85 41-176 84l-165 79-9.5 0.31c-7.2 0.24-11-0.12-15-1.5zm636-17 1.9-9.6 8 0.2c6.7 0.17 6.8-0.49 6.3 1.6-0.31 1.2-1.6 7.4-2.6 13l-1.7 10-6.5 0.04c-8.8 0.19-8.4-0.93-7.9-3.1 0.43-4.6 1.8-9.2 2.5-13z" style="fill:#4e9eed"/>
    </g>
   </g>
  </g>
 </g>
</svg>
